<?xml version="1.0" standalone="no"?><!DOCTYPE svg PUBLIC "-//W3C//DTD SVG 1.1//EN" "http://www.w3.org/Graphics/SVG/1.1/DTD/svg11.dtd"><svg t="1586342458474" class="icon" viewBox="0 0 1024 1024" version="1.1" xmlns="http://www.w3.org/2000/svg" p-id="2199" xmlns:xlink="http://www.w3.org/1999/xlink" width="200" height="200"><defs><style type="text/css"></style></defs><path d="M939.111 440.92L562.225 98.643c-27.494-24.949-73.977-24.903-101.416 0.14L84.758 441.97C70.276 455.179 61.981 473.756 62 492.929c0.009 19.182 8.341 37.76 22.85 50.967l10.905 9.931 37.527-0.047v316.37c0 40.739 33.143 73.885 73.875 73.885h609.714c40.73 0 73.865-33.145 73.865-73.885V552.861l37.639-0.047 10.877-9.939c14.48-13.219 22.766-31.805 22.748-50.996-0.028-19.182-8.36-37.76-22.889-50.959zM645.166 611.139H378.834c-21.011 0-38.047-17.034-38.047-38.047 0-21.012 17.036-38.047 38.047-38.047h266.332c21.01 0 38.047 17.035 38.047 38.047 0 21.012-17.037 38.047-38.047 38.047z" p-id="2200" fill="#1296db"></path></svg>